<?xml version="1.0" encoding="UTF-8"?>
<svg width="700pt" height="700pt" version="1.1" viewBox="0 0 700 700" xmlns="http://www.w3.org/2000/svg">
 <path d="m547.4 452.55c40.426-46.199 65.102-106.4 65.102-172.55 0-144.73-117.77-262.5-262.5-262.5s-262.5 117.77-262.5 262.5 117.77 262.5 262.5 262.5c66.148 0 126.35-24.676 172.55-65.102l60.023 60.023c3.5 3.3281 7.875 5.0781 12.426 5.0781s8.9258-1.75 12.426-5.0742c6.8242-6.8242 6.8242-17.852 0-24.676zm-424.9-172.55c0-125.48 102.02-227.5 227.5-227.5s227.5 102.02 227.5 227.5-102.02 227.5-227.5 227.5-227.5-102.02-227.5-227.5zm122.5-52.5c0-19.25 15.75-35 35-35s35 15.75 35 35-15.75 35-35 35-35-15.75-35-35zm210 0c0 19.25-15.75 35-35 35s-35-15.75-35-35 15.75-35 35-35 35 15.75 35 35zm-8.75 115.32c3.8516 8.75 0 19.25-8.9258 23.102-2.2734 1.0508-4.7266 1.5742-7 1.5742-6.6484 0-13.125-3.8516-16.102-10.5-11.199-25.551-36.574-42-64.223-42s-53.023 16.449-64.398 42.176c-3.8516 8.75-14.176 12.949-23.102 8.9258-8.75-3.8516-12.773-14.176-8.9258-23.102 16.977-38.324 54.949-63 96.426-63s79.449 24.676 96.25 62.824z"/>
</svg>
