<svg width="16" height="23" viewBox="0 0 16 23" fill="none" xmlns="http://www.w3.org/2000/svg">
<path fill-rule="evenodd" clip-rule="evenodd" d="M4 1C3.44772 1 3 1.44772 3 2H2H1.5C1.22386 2 1 2.22386 1 2.5C1 2.77614 1.22386 3 1.5 3H2V20C2 21.1046 2.89543 22 4 22H12C13.1046 22 14 21.1046 14 20V3H14.5C14.7761 3 15 2.77614 15 2.5C15 2.22386 14.7761 2 14.5 2H14H13C13 1.44772 12.5523 1 12 1H4ZM4 3H3V20C3 20.5523 3.44772 21 4 21H12C12.5523 21 13 20.5523 13 20V3H12H4ZM11.6449 11.252C11.939 11.0011 11.9817 10.5529 11.7402 10.251C11.4988 9.9491 11.0646 9.90775 10.7705 10.1587L8.06001 12.4713L5.09512 10.1707C4.78969 9.93375 4.35813 9.99537 4.13122 10.3084C3.90432 10.6214 3.96797 11.0672 4.27341 11.3042L6.97287 13.3988L4.4029 15.5915C4.1088 15.8424 4.06612 16.2906 4.30758 16.5925C4.54903 16.8945 4.98319 16.9358 5.27729 16.6849L8.10194 14.2749L10.9 16.446C11.2055 16.683 11.637 16.6214 11.8639 16.3084C12.0908 15.9954 12.0272 15.5495 11.7217 15.3125L9.18907 13.3473L11.6449 11.252Z" fill="#9C0328"/>
<path d="M3 2V2.25H3.25V2H3ZM2 3H2.25V2.75H2V3ZM14 3V2.75H13.75V3H14ZM13 2H12.75V2.25H13V2ZM3 3V2.75H2.75V3H3ZM13 3H13.25V2.75H13V3ZM11.6449 11.252L11.8072 11.4422L11.8072 11.4422L11.6449 11.252ZM10.7705 10.1587L10.9328 10.3489L10.9328 10.3489L10.7705 10.1587ZM8.06001 12.4713L7.90675 12.6688L8.06749 12.7935L8.22227 12.6615L8.06001 12.4713ZM5.09512 10.1707L4.94187 10.3683L4.94187 10.3683L5.09512 10.1707ZM4.27341 11.3042L4.12015 11.5017L4.12015 11.5017L4.27341 11.3042ZM6.97287 13.3988L7.13514 13.589L7.36883 13.3896L7.12613 13.2013L6.97287 13.3988ZM4.4029 15.5915L4.24064 15.4013L4.24064 15.4013L4.4029 15.5915ZM5.27729 16.6849L5.11502 16.4947L5.11502 16.4947L5.27729 16.6849ZM8.10194 14.2749L8.2552 14.0774L8.09445 13.9526L7.93968 14.0847L8.10194 14.2749ZM10.9 16.446L10.7468 16.6435L10.7468 16.6435L10.9 16.446ZM11.8639 16.3084L12.0663 16.4551L12.0663 16.4551L11.8639 16.3084ZM11.7217 15.3125L11.875 15.115L11.875 15.115L11.7217 15.3125ZM9.18907 13.3473L9.02681 13.1572L8.79312 13.3565L9.03582 13.5449L9.18907 13.3473ZM3.25 2C3.25 1.58579 3.58579 1.25 4 1.25V0.75C3.30964 0.75 2.75 1.30964 2.75 2H3.25ZM2 2.25H3V1.75H2V2.25ZM1.5 2.25H2V1.75H1.5V2.25ZM1.25 2.5C1.25 2.36193 1.36193 2.25 1.5 2.25V1.75C1.08579 1.75 0.75 2.08579 0.75 2.5H1.25ZM1.5 2.75C1.36193 2.75 1.25 2.63807 1.25 2.5H0.75C0.75 2.91421 1.08579 3.25 1.5 3.25V2.75ZM2 2.75H1.5V3.25H2V2.75ZM2.25 20V3H1.75V20H2.25ZM4 21.75C3.0335 21.75 2.25 20.9665 2.25 20H1.75C1.75 21.2426 2.75736 22.25 4 22.25V21.75ZM12 21.75H4V22.25H12V21.75ZM13.75 20C13.75 20.9665 12.9665 21.75 12 21.75V22.25C13.2426 22.25 14.25 21.2426 14.25 20H13.75ZM13.75 3V20H14.25V3H13.75ZM14.5 2.75H14V3.25H14.5V2.75ZM14.75 2.5C14.75 2.63807 14.6381 2.75 14.5 2.75V3.25C14.9142 3.25 15.25 2.91421 15.25 2.5H14.75ZM14.5 2.25C14.6381 2.25 14.75 2.36193 14.75 2.5H15.25C15.25 2.08579 14.9142 1.75 14.5 1.75V2.25ZM14 2.25H14.5V1.75H14V2.25ZM13 2.25H14V1.75H13V2.25ZM12 1.25C12.4142 1.25 12.75 1.58579 12.75 2H13.25C13.25 1.30964 12.6904 0.75 12 0.75V1.25ZM4 1.25H12V0.75H4V1.25ZM3 3.25H4V2.75H3V3.25ZM3.25 20V3H2.75V20H3.25ZM4 20.75C3.58579 20.75 3.25 20.4142 3.25 20H2.75C2.75 20.6904 3.30964 21.25 4 21.25V20.75ZM12 20.75H4V21.25H12V20.75ZM12.75 20C12.75 20.4142 12.4142 20.75 12 20.75V21.25C12.6904 21.25 13.25 20.6904 13.25 20H12.75ZM12.75 3V20H13.25V3H12.75ZM12 3.25H13V2.75H12V3.25ZM12 2.75H4V3.25H12V2.75ZM11.545 10.4072C11.7021 10.6037 11.674 10.8985 11.4826 11.0619L11.8072 11.4422C12.2039 11.1037 12.2612 10.5022 11.9355 10.0949L11.545 10.4072ZM10.9328 10.3489C11.1195 10.1896 11.3917 10.2155 11.545 10.4072L11.9355 10.0949C11.6058 9.68269 11.0097 9.62593 10.6082 9.96849L10.9328 10.3489ZM8.22227 12.6615L10.9328 10.3489L10.6082 9.96849L7.89774 12.2811L8.22227 12.6615ZM4.94187 10.3683L7.90675 12.6688L8.21326 12.2738L5.24838 9.97323L4.94187 10.3683ZM4.33363 10.4551C4.47763 10.2565 4.74804 10.2179 4.94187 10.3683L5.24838 9.97323C4.83133 9.64963 4.23864 9.73426 3.92882 10.1616L4.33363 10.4551ZM4.42667 11.1067C4.22781 10.9524 4.1859 10.6589 4.33363 10.4551L3.92882 10.1616C3.62273 10.5839 3.70814 11.1821 4.12015 11.5017L4.42667 11.1067ZM7.12613 13.2013L4.42667 11.1067L4.12015 11.5017L6.81962 13.5963L7.12613 13.2013ZM4.56517 15.7817L7.13514 13.589L6.81061 13.2086L4.24064 15.4013L4.56517 15.7817ZM4.50282 16.4364C4.34567 16.2399 4.37375 15.945 4.56517 15.7817L4.24064 15.4013C3.84385 15.7399 3.78658 16.3413 4.11233 16.7487L4.50282 16.4364ZM5.11502 16.4947C4.92833 16.654 4.6561 16.6281 4.50282 16.4364L4.11233 16.7487C4.44197 17.1609 5.03805 17.2176 5.43955 16.8751L5.11502 16.4947ZM7.93968 14.0847L5.11502 16.4947L5.43955 16.8751L8.2642 14.4651L7.93968 14.0847ZM11.0533 16.2485L8.2552 14.0774L7.94868 14.4724L10.7468 16.6435L11.0533 16.2485ZM11.6615 16.1616C11.5175 16.3603 11.2471 16.3989 11.0533 16.2485L10.7468 16.6435C11.1638 16.9671 11.7565 16.8825 12.0663 16.4551L11.6615 16.1616ZM11.5685 15.51C11.7673 15.6643 11.8093 15.9579 11.6615 16.1616L12.0663 16.4551C12.3724 16.0329 12.287 15.4347 11.875 15.115L11.5685 15.51ZM9.03582 13.5449L11.5685 15.51L11.875 15.115L9.34233 13.1498L9.03582 13.5449ZM11.4826 11.0619L9.02681 13.1572L9.35134 13.5375L11.8072 11.4422L11.4826 11.0619Z" fill="#9C0328"/>
</svg>
